<?xml version="1.0" encoding="utf-8"?>
<svg version="1.1" id="Layer_1" xmlns="http://www.w3.org/2000/svg" xmlns:xlink="http://www.w3.org/1999/xlink" x="0px" y="0px"
	 viewBox="0 0 1287.068 1540.261" enable-background="new 0 0 1287.068 1540.261" xml:space="preserve">
<path fill="#800000" d="M551.735,1513.293c-40-5.733-93.333-18.667-125.333-30.667l-22.667-8.133l33.333-2.267
	c108-7.467,200-78.667,226.667-186.667c10.4-33.333,13.067-88,6.133-120c-20-93.333-78.667-160-160-200
	c-28-10.933-36-12.267-76-13.333c-52-1.867-88,5.333-129.333,25.333c-114.667,57.333-173.333,200-128,320
	c8.4,24,4.267,21.333-26.667-18.667c-60-78.667-100-160-118.667-253.333c-11.867-57.333-13.2-160-2.933-226.667
	c17.333-105.333,64-213.333,130.667-293.333c11.2-13.333,122.667-128,253.333-253.333L638.935,25.56l240,240
	c128,128,240,240,253.333,253.333c76,94.667,125.333,213.333,132,333.333c7.333,113.333-13.333,226.667-61.333,320
	c-88,173.333-253.333,293.333-440,333.333c-52,9.733-146.667,12.133-186.667,5.067L551.735,1513.293z"/>
</svg>
